<svg xmlns="http://www.w3.org/2000/svg" xmlns:oryx="http://oryx-editor.org" id="_A4E54242-8DEE-4C0F-A456-523644B7AB81" width="1163" height="346" xmlns:xlink="http://www.w3.org/1999/xlink" xmlns:svg="http://www.w3.org/2000/svg"><defs><marker id="_5E45AF75-817F-4546-A136-D6B283FE9DFCstart" refX="1" refY="5" markerUnits="userSpaceOnUse" markerWidth="17" markerHeight="11" orient="auto" fill="#000000" stroke="#000000"> 	  		<path id="_5E45AF75-817F-4546-A136-D6B283FE9DFCconditional" d="M 0 5 L 8 0 L 16 5 L 8 10 L 0 5" fill="white" stroke="#000000" stroke-width="1" display="none"/> 			<path id="_5E45AF75-817F-4546-A136-D6B283FE9DFCdefault" d="M 5 0 L 11 10" fill="white" stroke="#000000" stroke-width="1" display="none"/> 	  	</marker><marker id="_5E45AF75-817F-4546-A136-D6B283FE9DFCend" refX="15" refY="6" markerUnits="userSpaceOnUse" markerWidth="15" markerHeight="12" orient="auto" fill="#000000" stroke="#000000"> 	  		<path id="_5E45AF75-817F-4546-A136-D6B283FE9DFCframe2" d="M 0 1 L 15 6 L 0 11z" fill="#000000" stroke="#000000" stroke-linejoin="round" stroke-width="2"/> 	  	</marker><marker id="_42FE7127-A59E-48CF-8A9D-2A4E873B05A9start" refX="1" refY="5" markerUnits="userSpaceOnUse" markerWidth="17" markerHeight="11" orient="auto" fill="#000000" stroke="#000000"> 	  		<path id="_42FE7127-A59E-48CF-8A9D-2A4E873B05A9conditional" d="M 0 5 L 8 0 L 16 5 L 8 10 L 0 5" fill="white" stroke="#000000" stroke-width="1" display="none"/> 			<path id="_42FE7127-A59E-48CF-8A9D-2A4E873B05A9default" d="M 5 0 L 11 10" fill="white" stroke="#000000" stroke-width="1" display="none"/> 	  	</marker><marker id="_42FE7127-A59E-48CF-8A9D-2A4E873B05A9end" refX="15" refY="6" markerUnits="userSpaceOnUse" markerWidth="15" markerHeight="12" orient="auto" fill="#000000" stroke="#000000"> 	  		<path id="_42FE7127-A59E-48CF-8A9D-2A4E873B05A9frame2" d="M 0 1 L 15 6 L 0 11z" fill="#000000" stroke="#000000" stroke-linejoin="round" stroke-width="2"/> 	  	</marker><marker id="_18FDC8EC-2E20-4C96-9922-311356903520start" refX="1" refY="5" markerUnits="userSpaceOnUse" markerWidth="17" markerHeight="11" orient="auto" fill="#000000" stroke="#000000"> 	  		<path id="_18FDC8EC-2E20-4C96-9922-311356903520conditional" d="M 0 5 L 8 0 L 16 5 L 8 10 L 0 5" fill="white" stroke="#000000" stroke-width="1" display="none"/> 			<path id="_18FDC8EC-2E20-4C96-9922-311356903520default" d="M 5 0 L 11 10" fill="white" stroke="#000000" stroke-width="1" display="none"/> 	  	</marker><marker id="_18FDC8EC-2E20-4C96-9922-311356903520end" refX="15" refY="6" markerUnits="userSpaceOnUse" markerWidth="15" markerHeight="12" orient="auto" fill="#000000" stroke="#000000"> 	  		<path id="_18FDC8EC-2E20-4C96-9922-311356903520frame2" d="M 0 1 L 15 6 L 0 11z" fill="#000000" stroke="#000000" stroke-linejoin="round" stroke-width="2"/> 	  	</marker><marker id="_52A00220-43F2-4CB3-A926-95A6262619F6start" refX="1" refY="5" markerUnits="userSpaceOnUse" markerWidth="17" markerHeight="11" orient="auto" fill="#000000" stroke="#000000"> 	  		<path id="_52A00220-43F2-4CB3-A926-95A6262619F6conditional" d="M 0 5 L 8 0 L 16 5 L 8 10 L 0 5" fill="white" stroke="#000000" stroke-width="1" display="none"/> 			<path id="_52A00220-43F2-4CB3-A926-95A6262619F6default" d="M 5 0 L 11 10" fill="white" stroke="#000000" stroke-width="1" display="none"/> 	  	</marker><marker id="_52A00220-43F2-4CB3-A926-95A6262619F6end" refX="15" refY="6" markerUnits="userSpaceOnUse" markerWidth="15" markerHeight="12" orient="auto" fill="#000000" stroke="#000000"> 	  		<path id="_52A00220-43F2-4CB3-A926-95A6262619F6frame2" d="M 0 1 L 15 6 L 0 11z" fill="#000000" stroke="#000000" stroke-linejoin="round" stroke-width="2"/> 	  	</marker></defs><g stroke="none" font-family="Verdana, sans-serif" font-size-adjust="none" font-style="normal" font-variant="normal" font-weight="normal" line-heigth="normal" font-size="12"><g class="stencils" transform="translate(15, 16)"><g class="me"/><g class="children"><g id="_22A49E0D-CFC7-40DB-B65B-7336C1C3D369" bpmn2nodeid="processStartEvent"><g class="stencils" transform="translate(120, 165)"><g class="me"><g pointer-events="fill" id="_22A49E0D-CFC7-40DB-B65B-7336C1C3D369">        <defs id="_22A49E0D-CFC7-40DB-B65B-7336C1C3D369__22A49E0D-CFC7-40DB-B65B-7336C1C3D369_5"> 		<radialGradient id="_22A49E0D-CFC7-40DB-B65B-7336C1C3D369background" cx="10%" cy="10%" r="100%" fx="10%" fy="10%"> 			<stop offset="0%" stop-color="#ffffff" stop-opacity="1" id="_22A49E0D-CFC7-40DB-B65B-7336C1C3D369__22A49E0D-CFC7-40DB-B65B-7336C1C3D369_6"/> 			<stop id="_22A49E0D-CFC7-40DB-B65B-7336C1C3D369fill_el" offset="100%" stop-color="#9acd32" stop-opacity="1"/> 		</radialGradient> 	</defs> 	     <circle id="_22A49E0D-CFC7-40DB-B65B-7336C1C3D369bg_frame" cx="15" cy="15" r="15" stroke="#000000" fill="url(#_22A49E0D-CFC7-40DB-B65B-7336C1C3D369background) white" stroke-width="1" style="stroke-dasharray: 5.5, 3"/>      <circle id="_22A49E0D-CFC7-40DB-B65B-7336C1C3D369frame" cx="15" cy="15" r="15" stroke="#000000" fill="none" stroke-width="1" display="inherit"/>  	<text font-size="11" id="_22A49E0D-CFC7-40DB-B65B-7336C1C3D369text_name" x="15" y="32" oryx:align="top center" stroke="black" stroke-width="0pt" letter-spacing="-0.01px" fill="#000000" text-anchor="middle" transform="rotate(0 15 32)" visibility="inherit" oryx:fontSize="11"/>   </g></g><g class="children" style="overflow:hidden"/><g class="edge"/></g><g class="controls"><g class="dockers"/><g class="magnets" transform="translate(120, 165)"><g pointer-events="all" display="none" transform="translate(7, 7)"><circle cx="8" cy="8" r="4" stroke="none" fill="red" fill-opacity="0.3"/></g></g></g></g><g id="_C9129046-1AB1-4CFC-993E-C2BD4BE4D62C" bpmn2nodeid="_BEF0C6DA-4793-4442-8BEA-941834DC92AF"><g class="stencils" transform="translate(195, 140)"><g class="me"><g pointer-events="fill" oryx:minimumSize="50 40" id="_C9129046-1AB1-4CFC-993E-C2BD4BE4D62C">   	<defs id="_C9129046-1AB1-4CFC-993E-C2BD4BE4D62C__C9129046-1AB1-4CFC-993E-C2BD4BE4D62C_17"> 		<radialGradient id="_C9129046-1AB1-4CFC-993E-C2BD4BE4D62Cbackground" cx="10%" cy="10%" r="100%" fx="10%" fy="10%"> 			<stop offset="0%" stop-color="#ffffff" stop-opacity="1" id="_C9129046-1AB1-4CFC-993E-C2BD4BE4D62C__C9129046-1AB1-4CFC-993E-C2BD4BE4D62C_18"/> 			<stop id="_C9129046-1AB1-4CFC-993E-C2BD4BE4D62Cfill_el" offset="100%" stop-color="#fafad2" stop-opacity="1"/> 		</radialGradient> 		<radialGradient id="_C9129046-1AB1-4CFC-993E-C2BD4BE4D62Cborderbackground" cx="10%" cy="10%" r="100%" fx="10%" fy="10%"> 			<stop offset="0%" stop-color="#ffffff" stop-opacity="1" id="_C9129046-1AB1-4CFC-993E-C2BD4BE4D62C__C9129046-1AB1-4CFC-993E-C2BD4BE4D62C_19"/> 			<stop id="_C9129046-1AB1-4CFC-993E-C2BD4BE4D62Cfill_border" offset="100%" stop-color="#000000" stop-opacity="1" stroke="#000000"/> 		</radialGradient> 	</defs> 	 	<rect id="_C9129046-1AB1-4CFC-993E-C2BD4BE4D62Ctext_frame" oryx:anchors="bottom top right left" x="1" y="1" width="94" height="79" rx="10" ry="10" stroke="none" stroke-width="0" fill="none"/> 	<rect id="_C9129046-1AB1-4CFC-993E-C2BD4BE4D62Cbg_frame" oryx:resize="vertical horizontal" x="0" y="0" width="100" height="80" rx="10" ry="10" stroke="#000000" stroke-width="1" fill="url(#_C9129046-1AB1-4CFC-993E-C2BD4BE4D62Cbackground) #ffffcc"/> 		<text font-size="12" id="_C9129046-1AB1-4CFC-993E-C2BD4BE4D62Ctext_name" x="50" y="40" oryx:align="middle center" oryx:fittoelem="text_frame" stroke="black" text-anchor="middle" stroke-width="0pt" letter-spacing="-0.01px" fill="#000000" transform="rotate(0 50 40)" visibility="inherit" oryx:fontSize="12"><tspan x="50" y="40" dy="5" id="ext-gen819">Init</tspan></text>     <g id="_C9129046-1AB1-4CFC-993E-C2BD4BE4D62CmanualTask" transform="scale(0.7,0.7) translate(8,8)" display="none">     	<path oryx:anchors="top left" id="_C9129046-1AB1-4CFC-993E-C2BD4BE4D62Cframe" style="opacity:1;fill:none;fill-opacity:1;stroke-width:1" d="M0.5,3.751l4.083-3.25c0,0,11.166,0.083,12.083,0.083s-2.417,2.917-1.5,2.917     s11.667,0,12.584,0c1.166,1.708-0.168,3.167-0.834,3.667s0.875,1.917-1,4.417c-0.75,0.25,0.75,1.875-1.333,3.333     c-1.167,0.583,0.583,1.542-1.25,2.833c-1.167,0-20.833,0.083-20.833,0.083l-2-1.333V3.751z" stroke="#000000"/> 		<path id="_C9129046-1AB1-4CFC-993E-C2BD4BE4D62Cframe2" oryx:anchors="top left" style="opacity:1;fill:none;stroke-width:2" d="M 13.5 7 L 27 7" stroke="#000000"/> 		<path id="_C9129046-1AB1-4CFC-993E-C2BD4BE4D62Cframe3" oryx:anchors="top left" style="opacity:1;fill:none;stroke-width:2" d="M 13.5 11 L 26 11" stroke="#000000"/> 		<path id="_C9129046-1AB1-4CFC-993E-C2BD4BE4D62Cframe4" oryx:anchors="top left" style="opacity:1;fill:none;stroke-width:1.5" d="M 14 14.5 L 25 14.5" stroke="#000000"/> 		<path id="_C9129046-1AB1-4CFC-993E-C2BD4BE4D62Cframe5" oryx:anchors="top left" style="opacity:1;fill:none;stroke-width:1.5" d="M 8.2 3.1 L 15 3.1" stroke="#000000"/> 	</g> 	 	<g id="_C9129046-1AB1-4CFC-993E-C2BD4BE4D62CbusinessRuleTask" transform="scale(0.7,0.7) translate(8,8)" display="none"> 		<rect id="_C9129046-1AB1-4CFC-993E-C2BD4BE4D62Cframe6" oryx:anchors="top left" x="0" y="0" width="22" height="4" style="opacity:1;fill:#B3B1B3;fill-opacity:1;" stroke="#000000"/> 		<rect id="_C9129046-1AB1-4CFC-993E-C2BD4BE4D62Cframe7" oryx:anchors="top left" x="0" y="4" style="opacity:1;fill:none;" width="22" height="12" stroke="#000000"/> 		<path id="_C9129046-1AB1-4CFC-993E-C2BD4BE4D62Cframe8" oryx:anchors="top left" style="opacity:1;fill:none;" d="M 0 10 L 22 10" stroke="#000000"/> 		<path id="_C9129046-1AB1-4CFC-993E-C2BD4BE4D62Cframe9" oryx:anchors="top left" style="opacity:1; fill:none;" d="M 7 4 L 7 16" stroke="#000000"/> 	</g> 	 	<g id="_C9129046-1AB1-4CFC-993E-C2BD4BE4D62CscriptTask" transform="scale(0.7,0.7) translate(8,8)" display="inherit"> 		<path oryx:anchors="top left" id="_C9129046-1AB1-4CFC-993E-C2BD4BE4D62Cframe10" style="opacity:1;fill:none;" stroke="#000000" d="M6.402,0.5h14.5c0,0-5.833,2.833-5.833,5.583s4.417,6,4.417,9.167    s-4.167,5.083-4.167,5.083H0.235c0,0,5-2.667,5-5s-4.583-6.75-4.583-9.25S6.402,0.5,6.402,0.5z"/> 		<path oryx:anchors="top left" id="_C9129046-1AB1-4CFC-993E-C2BD4BE4D62Cframe11" style="opacity:1;fill:none;stroke-width:1.5" d="M 3.5 4.5 L 13.5 4.5" stroke="#000000"/> 		<path oryx:anchors="top left" id="_C9129046-1AB1-4CFC-993E-C2BD4BE4D62Cframe12" style="opacity:1;fill:none;stroke-width:1.5" d="M 3.8 8.5 L 13.8 8.5" stroke="#000000"/> 		<path oryx:anchors="top left" id="_C9129046-1AB1-4CFC-993E-C2BD4BE4D62Cframe13" style="opacity:1;fill:none;stroke-width:1.5" d="M 6.3 12.5 L 16.3 12.5" stroke="#000000"/> 		<path oryx:anchors="top left" id="_C9129046-1AB1-4CFC-993E-C2BD4BE4D62Cframe14" style="opacity:1;fill:none;stroke-width:1.5" d="M 6.5 16.5 L 16.5 16.5" stroke="#000000"/> 	</g> 	 	<g id="_C9129046-1AB1-4CFC-993E-C2BD4BE4D62CuserTask" transform="scale(0.7,0.7) translate(8,8)" display="none"> 		<path id="_C9129046-1AB1-4CFC-993E-C2BD4BE4D62Cframe15" oryx:anchors="top left" style="opacity:1;fill:#F4F6F7" stroke="#000000" d="M0.585,24.167h24.083v-7.833c0,0-2.333-3.917-7.083-5.167h-9.25    c-4.417,1.333-7.833,5.75-7.833,5.75L0.585,24.167z"/> 		<path id="_C9129046-1AB1-4CFC-993E-C2BD4BE4D62Cframe16" oryx:anchors="top left" style="opacity:1;fill:none" d="M 6 20 L 6 24" stroke="#000000"/> 		<path id="_C9129046-1AB1-4CFC-993E-C2BD4BE4D62Cframe17" oryx:anchors="top left" style="opacity:1;fill:none" d="M 20 20 L 20 24" stroke="#000000"/> 		<circle id="_C9129046-1AB1-4CFC-993E-C2BD4BE4D62Cframe18" oryx:anchors="top left" fill="black" cx="13.002" cy="5.916" r="5.417" stroke="#000000"/> 		<path id="_C9129046-1AB1-4CFC-993E-C2BD4BE4D62Cframe19" oryx:anchors="top left" style="opacity:1;fill:#F0EFF0;" stroke="#000000" d="M8.043,7.083c0,0,2.814-2.426,5.376-1.807s4.624-0.693,4.624-0.693    c0.25,1.688,0.042,3.75-1.458,5.584c0,0,1.083,0.75,1.083,1.5s0.125,1.875-1,3s-5.5,1.25-6.75,0S8.668,12.834,8.668,12    s0.583-1.25,1.25-1.917C8.835,9.5,7.419,7.708,8.043,7.083z"/> 	</g> 	 	<g id="_C9129046-1AB1-4CFC-993E-C2BD4BE4D62CserviceTask" transform="scale(0.7,0.7) translate(8,8)" display="none"> 		<polygon oryx:anchors="top left" id="_C9129046-1AB1-4CFC-993E-C2BD4BE4D62Cframe20" style="opacity:1;fill:#ffffff" stroke="#000000" points="15.392,5.064 17.954,2.502 20.347,4.895 17.786,7.455     18.729,9.732 22.353,9.732 22.353,13.115 18.731,13.115 17.788,15.392 20.351,17.955 17.958,20.347 15.397,17.786 13.12,18.729     13.12,22.353 9.737,22.353 9.737,18.731 7.46,17.788 4.897,20.35 2.506,17.958 5.066,15.397 4.124,13.12 0.5,13.12 0.5,9.737     4.121,9.737 5.065,7.461 2.503,4.898 4.895,2.506 7.455,5.066 9.732,4.125 9.732,0.5 13.116,0.5 13.116,4.121 "/> 		<circle oryx:anchors="top left" id="_C9129046-1AB1-4CFC-993E-C2BD4BE4D62Cframe21" style="opacity:1;fill:none" stroke="#000000" cx="11.427" cy="11.426" r="3.714"/> 		<polygon oryx:anchors="top left" id="_C9129046-1AB1-4CFC-993E-C2BD4BE4D62Cframe22" style="opacity:1;fill:#ffffff" stroke="#000000" points="21.392,11.064 23.954,8.502 26.347,10.895 23.786,13.455     24.729,15.732 28.353,15.732 28.353,19.115 24.731,19.115 23.788,21.392 26.351,23.955 23.958,26.347 21.397,23.786 19.12,24.729     19.12,28.353 15.737,28.353 15.737,24.731 13.46,23.788 10.897,26.35 8.506,23.958 11.066,21.397 10.124,19.12 6.5,19.12     6.5,15.737 10.121,15.737 11.065,13.461 8.503,10.898 10.895,8.506 13.455,11.066 15.732,10.125 15.732,6.5 19.116,6.5     19.116,10.121 "/> 		<circle oryx:anchors="top left" id="_C9129046-1AB1-4CFC-993E-C2BD4BE4D62Cframe23" style="opacity:1;fill:none;" stroke="#000000" cx="17.427" cy="17.426" r="3.714"/> 	</g> 	 	<g id="_C9129046-1AB1-4CFC-993E-C2BD4BE4D62CsendTask" display="none"> 		<path id="_C9129046-1AB1-4CFC-993E-C2BD4BE4D62Cstframe24" oryx:anchors="left top" stroke="#FFFFFF" fill="black" stroke-width="1" d="M8,11 L8,21 L24,21 L24,11 L16,17z"/> 		<path id="_C9129046-1AB1-4CFC-993E-C2BD4BE4D62Cstframe25" oryx:anchors="left top" stroke="#FFFFFF" fill="black" stroke-width="1" d="M7,10 L16,17 L25 10z"/> 	</g> 	 	<g id="_C9129046-1AB1-4CFC-993E-C2BD4BE4D62CreceiveTask" display="none"> 		<path id="_C9129046-1AB1-4CFC-993E-C2BD4BE4D62Cframe26" oryx:anchors="left top" stroke="#000000" fill="none" stroke-width="1" d="M8,11 L8,21 L24,21 L24,11z M8,11 L16,17 L24,11"/> 	</g> 	 	<g id="_C9129046-1AB1-4CFC-993E-C2BD4BE4D62Cnone" display="inherit"/>  	<g id="_C9129046-1AB1-4CFC-993E-C2BD4BE4D62Csequential" display="none">         <path oryx:anchors="bottom" fill="none" stroke="#000000" stroke-width="2" d="M46,76h10M46,72h10 M46,68h10" id="_C9129046-1AB1-4CFC-993E-C2BD4BE4D62C__C9129046-1AB1-4CFC-993E-C2BD4BE4D62C_20"/>     </g>   </g></g><g class="children" style="overflow:hidden"/><g class="edge"/></g><g class="controls"><g class="dockers"/><g class="magnets" transform="translate(195, 140)"><g pointer-events="all" display="none" transform="translate(-7, 12)"><circle cx="8" cy="8" r="4" stroke="none" fill="red" fill-opacity="0.3"/></g><g pointer-events="all" display="none" transform="translate(-7, 32)"><circle cx="8" cy="8" r="4" stroke="none" fill="red" fill-opacity="0.3"/></g><g pointer-events="all" display="none" transform="translate(-7, 52)"><circle cx="8" cy="8" r="4" stroke="none" fill="red" fill-opacity="0.3"/></g><g pointer-events="all" display="none" transform="translate(17, 71)"><circle cx="8" cy="8" r="4" stroke="none" fill="red" fill-opacity="0.3"/></g><g pointer-events="all" display="none" transform="translate(42, 71)"><circle cx="8" cy="8" r="4" stroke="none" fill="red" fill-opacity="0.3"/></g><g pointer-events="all" display="none" transform="translate(67, 71)"><circle cx="8" cy="8" r="4" stroke="none" fill="red" fill-opacity="0.3"/></g><g pointer-events="all" display="none" transform="translate(91, 12)"><circle cx="8" cy="8" r="4" stroke="none" fill="red" fill-opacity="0.3"/></g><g pointer-events="all" display="none" transform="translate(91, 32)"><circle cx="8" cy="8" r="4" stroke="none" fill="red" fill-opacity="0.3"/></g><g pointer-events="all" display="none" transform="translate(91, 52)"><circle cx="8" cy="8" r="4" stroke="none" fill="red" fill-opacity="0.3"/></g><g pointer-events="all" display="none" transform="translate(17, -7)"><circle cx="8" cy="8" r="4" stroke="none" fill="red" fill-opacity="0.3"/></g><g pointer-events="all" display="none" transform="translate(42, -7)"><circle cx="8" cy="8" r="4" stroke="none" fill="red" fill-opacity="0.3"/></g><g pointer-events="all" display="none" transform="translate(67, -7)"><circle cx="8" cy="8" r="4" stroke="none" fill="red" fill-opacity="0.3"/></g><g pointer-events="all" display="none" transform="translate(42, 32)"><circle cx="8" cy="8" r="4" stroke="none" fill="red" fill-opacity="0.3"/></g></g></g></g><g id="_A3D98CE2-9839-4B12-9160-71651C7B6991" bpmn2nodeid="_4020AF56-EC35-43B9-8453-AA679BDB9B98"><g class="stencils" transform="translate(1095, 166)"><g class="me"><g pointer-events="fill" id="_A3D98CE2-9839-4B12-9160-71651C7B6991">      <defs id="_A3D98CE2-9839-4B12-9160-71651C7B6991__A3D98CE2-9839-4B12-9160-71651C7B6991_5"> 		<radialGradient id="_A3D98CE2-9839-4B12-9160-71651C7B6991background" cx="10%" cy="10%" r="100%" fx="10%" fy="10%"> 			<stop offset="0%" stop-color="#ffffff" stop-opacity="1" id="_A3D98CE2-9839-4B12-9160-71651C7B6991__A3D98CE2-9839-4B12-9160-71651C7B6991_6"/> 			<stop id="_A3D98CE2-9839-4B12-9160-71651C7B6991fill_el" offset="100%" stop-color="#ff6347" stop-opacity="1"/> 		</radialGradient> 	</defs> 	     <circle id="_A3D98CE2-9839-4B12-9160-71651C7B6991bg_frame" cx="14" cy="14" r="14" stroke="#000000" fill="url(#_A3D98CE2-9839-4B12-9160-71651C7B6991background) white" stroke-width="3"/> 	<text font-size="11" id="_A3D98CE2-9839-4B12-9160-71651C7B6991text_name" x="14" y="30" oryx:align="top center" stroke="black" stroke-width="0pt" letter-spacing="-0.01px" fill="#000000" text-anchor="middle" transform="rotate(0 14 30)" visibility="inherit" oryx:fontSize="11"/>   </g></g><g class="children" style="overflow:hidden"/><g class="edge"/></g><g class="controls"><g class="dockers"/><g class="magnets" transform="translate(1095, 166)"><g pointer-events="all" display="none" transform="translate(6, 6)"><circle cx="8" cy="8" r="4" stroke="none" fill="red" fill-opacity="0.3"/></g></g></g></g><g id="_B185837C-3853-45E4-B4EA-5221951885BC" bpmn2nodeid="_D8489284-B6C0-4533-B725-863467D61B22"><g class="stencils" transform="translate(390, 160)"><g class="me"><g id="_B185837C-3853-45E4-B4EA-5221951885BC">      <defs id="_B185837C-3853-45E4-B4EA-5221951885BC__B185837C-3853-45E4-B4EA-5221951885BC_4"> 		<radialGradient id="_B185837C-3853-45E4-B4EA-5221951885BCbackground" cx="10%" cy="10%" r="100%" fx="10%" fy="10%"> 			<stop offset="0%" stop-color="#ffffff" stop-opacity="1" id="_B185837C-3853-45E4-B4EA-5221951885BC__B185837C-3853-45E4-B4EA-5221951885BC_5"/> 			<stop id="_B185837C-3853-45E4-B4EA-5221951885BCfill_el" offset="100%" stop-color="#f0e68c" stop-opacity="1"/> 		</radialGradient> 	</defs> 	     <path d=" M0 20.5  L20.5 0  L40 20.5  L20.5 40  z" id="_B185837C-3853-45E4-B4EA-5221951885BCbg_frame" fill="url(#_B185837C-3853-45E4-B4EA-5221951885BCbackground) white" style="stroke-width:1" stroke="#a67f00"/>     <path id="_B185837C-3853-45E4-B4EA-5221951885BCframe" d=" M11.25 20.5  L30.25 20.5  M20.5 11.25  L20.5 30.25 " style="fill:none;stroke-width:3" stroke="#a67f00"/>      	<text id="_B185837C-3853-45E4-B4EA-5221951885BCtext_name" x="30.5" y="30.5" oryx:align="left top" stroke-width="0pt" letter-spacing="-0.01px" fill="#000000" text-anchor="start" transform="rotate(0 30.5 30.5)" visibility="inherit" oryx:fontSize="12"/> 	   </g></g><g class="children" style="overflow:hidden"/><g class="edge"/></g><g class="controls"><g class="dockers"/><g class="magnets" transform="translate(390, 160)"><g pointer-events="all" display="none" transform="translate(12.5, 12.5)"><circle cx="8" cy="8" r="4" stroke="none" fill="red" fill-opacity="0.3"/></g></g></g></g><g id="_9FAD9408-EF48-4A8F-AC8E-FB1556073C2D" bpmn2nodeid="_D3C507BB-EC0C-486F-9DD4-E988E39BEDE7"><g class="stencils" transform="translate(555, 30)"><g class="me"><g pointer-events="fill" oryx:minimumSize="80 60" id="_9FAD9408-EF48-4A8F-AC8E-FB1556073C2D">   	<defs id="_9FAD9408-EF48-4A8F-AC8E-FB1556073C2D__9FAD9408-EF48-4A8F-AC8E-FB1556073C2D_17"> 		<radialGradient id="_9FAD9408-EF48-4A8F-AC8E-FB1556073C2Dbackground" cx="10%" cy="10%" r="100%" fx="10%" fy="10%"> 			<stop offset="0%" stop-color="#ffffff" stop-opacity="1" id="_9FAD9408-EF48-4A8F-AC8E-FB1556073C2D__9FAD9408-EF48-4A8F-AC8E-FB1556073C2D_18"/> 			<stop id="_9FAD9408-EF48-4A8F-AC8E-FB1556073C2Dfill_el" offset="100%" stop-color="#fafad2" stop-opacity="1"/> 		</radialGradient> 	</defs> 	<rect id="_9FAD9408-EF48-4A8F-AC8E-FB1556073C2Dtext_frame" oryx:anchors="bottom top right left" x="1" y="1" width="94" height="79" rx="10" ry="10" stroke="none" stroke-width="0" fill="none"/> 	<rect id="_9FAD9408-EF48-4A8F-AC8E-FB1556073C2Dbg_frame" oryx:anchors="bottom top right left" x="0" y="0" width="100" height="80" rx="10" ry="10" stroke="#000000" stroke-width="1" fill="url(#_9FAD9408-EF48-4A8F-AC8E-FB1556073C2Dbackground) #ffffcc"/> 	<rect id="_9FAD9408-EF48-4A8F-AC8E-FB1556073C2Dframe" oryx:resize="vertical horizontal" oryx:anchors="bottom top right left" x="0" y="0" width="100" height="80" rx="10" ry="10" stroke="#000000" stroke-width="4" fill="none"/> 	<rect id="_9FAD9408-EF48-4A8F-AC8E-FB1556073C2Dframe2" oryx:anchors="top bottom left right" oryx:resize="vertical horizontal" x="2.5" y="2.5" width="95" height="75" rx="8" ry="8" stroke="#000000" stroke-width="1" fill="none"/>     	<text font-size="12" id="_9FAD9408-EF48-4A8F-AC8E-FB1556073C2Dtext_name" x="50" y="40" oryx:align="middle center" oryx:fittoelem="text_frame" stroke="black" stroke-width="0pt" letter-spacing="-0.01px" fill="#000000" text-anchor="middle" transform="rotate(0 50 40)" visibility="inherit" oryx:fontSize="12"/>          <a id="_9FAD9408-EF48-4A8F-AC8E-FB1556073C2Dpimg" onclick="ORYX.EDITOR._pluginFacade.raiseEvent({                                                                          type 		: ORYX.CONFIG.EVENT_NOTIFICATION_SHOW,                                                                                    ntype		: 'error',                                                                                                                msg         : 'No Callable Element specified.',                                                                                        title       : ''                                                                                                                   });" xlink:href="">	 	<g id="_9FAD9408-EF48-4A8F-AC8E-FB1556073C2Db" oryx:anchors="bottom"> 		<rect id="_9FAD9408-EF48-4A8F-AC8E-FB1556073C2Dframe3" oryx:anchors="bottom" x="44" y="66" width="14" height="14" fill="none" stroke="#000000" stroke-width="1"/> 		<path id="_9FAD9408-EF48-4A8F-AC8E-FB1556073C2Dframe4" oryx:anchors="bottom" fill="none" stroke="#000000" d="M51 68 v10 M 46 73 h10" stroke-width="1"/> 	</g> 	</a> 	<g id="_9FAD9408-EF48-4A8F-AC8E-FB1556073C2Dnone"/> 	undefined 	  	undefined 	undefined 	 	 	undefined 	undefined   </g></g><g class="children" style="overflow:hidden"/><g class="edge"/></g><g class="controls"><g class="dockers"/><g class="magnets" transform="translate(555, 30)"><g pointer-events="all" display="none" transform="translate(-7, 12)"><circle cx="8" cy="8" r="4" stroke="none" fill="red" fill-opacity="0.3"/></g><g pointer-events="all" display="none" transform="translate(-7, 32)"><circle cx="8" cy="8" r="4" stroke="none" fill="red" fill-opacity="0.3"/></g><g pointer-events="all" display="none" transform="translate(-7, 52)"><circle cx="8" cy="8" r="4" stroke="none" fill="red" fill-opacity="0.3"/></g><g pointer-events="all" display="none" transform="translate(17, 71)"><circle cx="8" cy="8" r="4" stroke="none" fill="red" fill-opacity="0.3"/></g><g pointer-events="all" display="none" transform="translate(42, 71)"><circle cx="8" cy="8" r="4" stroke="none" fill="red" fill-opacity="0.3"/></g><g pointer-events="all" display="none" transform="translate(67, 71)"><circle cx="8" cy="8" r="4" stroke="none" fill="red" fill-opacity="0.3"/></g><g pointer-events="all" display="none" transform="translate(91, 12)"><circle cx="8" cy="8" r="4" stroke="none" fill="red" fill-opacity="0.3"/></g><g pointer-events="all" display="none" transform="translate(91, 32)"><circle cx="8" cy="8" r="4" stroke="none" fill="red" fill-opacity="0.3"/></g><g pointer-events="all" display="none" transform="translate(91, 52)"><circle cx="8" cy="8" r="4" stroke="none" fill="red" fill-opacity="0.3"/></g><g pointer-events="all" display="none" transform="translate(17, -7)"><circle cx="8" cy="8" r="4" stroke="none" fill="red" fill-opacity="0.3"/></g><g pointer-events="all" display="none" transform="translate(42, -7)"><circle cx="8" cy="8" r="4" stroke="none" fill="red" fill-opacity="0.3"/></g><g pointer-events="all" display="none" transform="translate(67, -7)"><circle cx="8" cy="8" r="4" stroke="none" fill="red" fill-opacity="0.3"/></g><g pointer-events="all" display="none" transform="translate(42, 32)"><circle cx="8" cy="8" r="4" stroke="none" fill="red" fill-opacity="0.3"/></g></g></g></g><g id="_E9FE3306-4892-4170-8669-AE045A321FE6" bpmn2nodeid="_AB0B4794-6050-4853-BA16-F360EB152C58"><g class="stencils" transform="translate(555, 225)"><g class="me"><g pointer-events="fill" oryx:minimumSize="80 60" id="_E9FE3306-4892-4170-8669-AE045A321FE6">   	<defs id="_E9FE3306-4892-4170-8669-AE045A321FE6__E9FE3306-4892-4170-8669-AE045A321FE6_17"> 		<radialGradient id="_E9FE3306-4892-4170-8669-AE045A321FE6background" cx="10%" cy="10%" r="100%" fx="10%" fy="10%"> 			<stop offset="0%" stop-color="#ffffff" stop-opacity="1" id="_E9FE3306-4892-4170-8669-AE045A321FE6__E9FE3306-4892-4170-8669-AE045A321FE6_18"/> 			<stop id="_E9FE3306-4892-4170-8669-AE045A321FE6fill_el" offset="100%" stop-color="#fafad2" stop-opacity="1"/> 		</radialGradient> 	</defs> 	<rect id="_E9FE3306-4892-4170-8669-AE045A321FE6text_frame" oryx:anchors="bottom top right left" x="1" y="1" width="94" height="79" rx="10" ry="10" stroke="none" stroke-width="0" fill="none"/> 	<rect id="_E9FE3306-4892-4170-8669-AE045A321FE6bg_frame" oryx:anchors="bottom top right left" x="0" y="0" width="100" height="80" rx="10" ry="10" stroke="#000000" stroke-width="1" fill="url(#_E9FE3306-4892-4170-8669-AE045A321FE6background) #ffffcc"/> 	<rect id="_E9FE3306-4892-4170-8669-AE045A321FE6frame" oryx:resize="vertical horizontal" oryx:anchors="bottom top right left" x="0" y="0" width="100" height="80" rx="10" ry="10" stroke="#000000" stroke-width="4" fill="none"/> 	<rect id="_E9FE3306-4892-4170-8669-AE045A321FE6frame2" oryx:anchors="top bottom left right" oryx:resize="vertical horizontal" x="2.5" y="2.5" width="95" height="75" rx="8" ry="8" stroke="#000000" stroke-width="1" fill="none"/>     	<text font-size="12" id="_E9FE3306-4892-4170-8669-AE045A321FE6text_name" x="50" y="40" oryx:align="middle center" oryx:fittoelem="text_frame" stroke="black" stroke-width="0pt" letter-spacing="-0.01px" fill="#000000" text-anchor="middle" transform="rotate(0 50 40)" visibility="inherit" oryx:fontSize="12"/>          <a id="_E9FE3306-4892-4170-8669-AE045A321FE6pimg" onclick="ORYX.EDITOR._pluginFacade.raiseEvent({                                                                          type 		: ORYX.CONFIG.EVENT_NOTIFICATION_SHOW,                                                                                    ntype		: 'error',                                                                                                                msg         : 'No Callable Element specified.',                                                                                        title       : ''                                                                                                                   });" xlink:href="">	 	<g id="_E9FE3306-4892-4170-8669-AE045A321FE6b" oryx:anchors="bottom"> 		<rect id="_E9FE3306-4892-4170-8669-AE045A321FE6frame3" oryx:anchors="bottom" x="44" y="66" width="14" height="14" fill="none" stroke="#000000" stroke-width="1"/> 		<path id="_E9FE3306-4892-4170-8669-AE045A321FE6frame4" oryx:anchors="bottom" fill="none" stroke="#000000" d="M51 68 v10 M 46 73 h10" stroke-width="1"/> 	</g> 	</a> 	<g id="_E9FE3306-4892-4170-8669-AE045A321FE6none"/> 	undefined 	  	undefined 	undefined 	 	 	undefined 	undefined   </g></g><g class="children" style="overflow:hidden"/><g class="edge"/></g><g class="controls"><g class="dockers"/><g class="magnets" transform="translate(555, 225)"><g pointer-events="all" display="none" transform="translate(-7, 12)"><circle cx="8" cy="8" r="4" stroke="none" fill="red" fill-opacity="0.3"/></g><g pointer-events="all" display="none" transform="translate(-7, 32)"><circle cx="8" cy="8" r="4" stroke="none" fill="red" fill-opacity="0.3"/></g><g pointer-events="all" display="none" transform="translate(-7, 52)"><circle cx="8" cy="8" r="4" stroke="none" fill="red" fill-opacity="0.3" id="ext-gen842"/></g><g pointer-events="all" display="none" transform="translate(17, 71)"><circle cx="8" cy="8" r="4" stroke="none" fill="red" fill-opacity="0.3"/></g><g pointer-events="all" display="none" transform="translate(42, 71)"><circle cx="8" cy="8" r="4" stroke="none" fill="red" fill-opacity="0.3"/></g><g pointer-events="all" display="none" transform="translate(67, 71)"><circle cx="8" cy="8" r="4" stroke="none" fill="red" fill-opacity="0.3"/></g><g pointer-events="all" display="none" transform="translate(91, 12)"><circle cx="8" cy="8" r="4" stroke="none" fill="red" fill-opacity="0.3"/></g><g pointer-events="all" display="none" transform="translate(91, 32)"><circle cx="8" cy="8" r="4" stroke="none" fill="red" fill-opacity="0.3"/></g><g pointer-events="all" display="none" transform="translate(91, 52)"><circle cx="8" cy="8" r="4" stroke="none" fill="red" fill-opacity="0.3"/></g><g pointer-events="all" display="none" transform="translate(17, -7)"><circle cx="8" cy="8" r="4" stroke="none" fill="red" fill-opacity="0.3"/></g><g pointer-events="all" display="none" transform="translate(42, -7)"><circle cx="8" cy="8" r="4" stroke="none" fill="red" fill-opacity="0.3"/></g><g pointer-events="all" display="none" transform="translate(67, -7)"><circle cx="8" cy="8" r="4" stroke="none" fill="red" fill-opacity="0.3"/></g><g pointer-events="all" display="none" transform="translate(42, 32)"><circle cx="8" cy="8" r="4" stroke="none" fill="red" fill-opacity="0.3"/></g></g></g></g></g><g class="edge"><g id="_5E45AF75-817F-4546-A136-D6B283FE9DFC" bpmn2nodeid="_53CFF94E-4641-4992-9F61-9711F93D1BFA"><g class="stencils"><g class="me"><g pointer-events="painted" bpmn2nodeid="_D61329FB-05AE-4707-A713-7D707629981C"><path id="_5E45AF75-817F-4546-A136-D6B283FE9DFC_1" d="M150.609375 180L194.15625 180 " stroke="#000000" fill="none" stroke-width="2" stroke-linecap="round" stroke-linejoin="round" marker-start="url(#_5E45AF75-817F-4546-A136-D6B283FE9DFCstart)" marker-end="url(#_5E45AF75-817F-4546-A136-D6B283FE9DFCend)"/></g><text id="_5E45AF75-817F-4546-A136-D6B283FE9DFCtext_name" font-size="12" x="164.609375" y="166" oryx:edgePosition="startTop" stroke-width="0pt" letter-spacing="-0.01px" fill="#000000" text-anchor="start" transform="rotate(360 150.609375 180)" visibility="inherit" oryx:fontSize="12"/></g><g class="children" style="overflow:hidden"/><g class="edge"/></g><g class="controls"><g class="dockers"/><g class="magnets"/></g></g><g id="_42FE7127-A59E-48CF-8A9D-2A4E873B05A9" bpmn2nodeid="_874EA79D-463F-4B3B-993A-E29E81EFB23C"><g class="stencils"><g class="me"><g pointer-events="painted" bpmn2nodeid="_67BD7EA2-C72D-4834-86FA-21E1C2F9E070"><path id="_42FE7127-A59E-48CF-8A9D-2A4E873B05A9_1" d="M295.875 180L390.0625 180 " stroke="#000000" fill="none" stroke-width="2" stroke-linecap="round" stroke-linejoin="round" marker-start="url(#_42FE7127-A59E-48CF-8A9D-2A4E873B05A9start)" marker-end="url(#_42FE7127-A59E-48CF-8A9D-2A4E873B05A9end)"/></g><text id="_42FE7127-A59E-48CF-8A9D-2A4E873B05A9text_name" font-size="12" x="309.875" y="166" oryx:edgePosition="startTop" stroke-width="0pt" letter-spacing="-0.01px" fill="#000000" text-anchor="start" transform="rotate(360 295.875 180)" visibility="inherit" oryx:fontSize="12"/></g><g class="children" style="overflow:hidden"/><g class="edge"/></g><g class="controls"><g class="dockers"/><g class="magnets"/></g></g><g id="_18FDC8EC-2E20-4C96-9922-311356903520" bpmn2nodeid="_1396C47B-6818-4219-B02C-3DE604E34AFB"><g class="stencils"><g class="me"><g pointer-events="painted" bpmn2nodeid="_1396C47B-6818-4219-B02C-3DE604E34AFB"><path id="_18FDC8EC-2E20-4C96-9922-311356903520_1" d="M410.5 159.64453125L410.5 70 L555 70 " stroke="#000000" fill="none" stroke-width="2" stroke-linecap="round" stroke-linejoin="round" marker-start="url(#_18FDC8EC-2E20-4C96-9922-311356903520start)" marker-end="url(#_18FDC8EC-2E20-4C96-9922-311356903520end)"/></g><text id="_18FDC8EC-2E20-4C96-9922-311356903520text_name" font-size="12" x="424.5" y="145.64453125" oryx:edgePosition="startTop" stroke-width="0pt" letter-spacing="-0.01px" fill="#000000" text-anchor="start" transform="rotate(270 410.5 159.64453125)" visibility="inherit" oryx:fontSize="12"/></g><g class="children" style="overflow:hidden"/><g class="edge"/></g><g class="controls"><g class="dockers"/><g class="magnets"/></g></g><g id="_52A00220-43F2-4CB3-A926-95A6262619F6" bpmn2nodeid="_A0231C17-73C0-400D-A910-0CB381F563C1"><g class="stencils"><g class="me"><g pointer-events="painted" bpmn2nodeid="_A0231C17-73C0-400D-A910-0CB381F563C1"><path id="_52A00220-43F2-4CB3-A926-95A6262619F6_1" d="M410.5 200.64453125L410.5 265 L555 265 " stroke="#000000" fill="none" stroke-width="2" stroke-linecap="round" stroke-linejoin="round" marker-start="url(#_52A00220-43F2-4CB3-A926-95A6262619F6start)" marker-end="url(#_52A00220-43F2-4CB3-A926-95A6262619F6end)"/></g><text id="_52A00220-43F2-4CB3-A926-95A6262619F6text_name" font-size="12" x="396.5" y="186.64453125" oryx:edgePosition="startTop" stroke-width="0pt" letter-spacing="-0.01px" fill="#000000" text-anchor="end" transform="rotate(-90 410.5 200.64453125)" visibility="inherit" oryx:fontSize="12"/></g><g class="children" style="overflow:hidden"/><g class="edge"/></g><g class="controls"><g class="dockers"/><g class="magnets"/></g></g></g><text id="_D48ED4C0-125F-49A8-8274-009305E3B5DA" style="stroke-width:1;fill:rgb(177,194,214);font-family:arial;font-weight:bold" font-size="12" onclick="ORYX.Plugins.CanvasTitle.openTextualAnalysis()" onmouseover="ORYX.Plugins.CanvasTitle.addToolTip('_D48ED4C0-125F-49A8-8274-009305E3B5DA')" transform="translate(10, 20)">SolarNewOrderPermit-Process v.1.0 (com.myspace.solarvillage_approvalprocess.SolarNewOrderPermit-Process)</text></g></g></svg>